<svg width="200" height="68" viewBox="0 0 200 68" fill="none" xmlns="http://www.w3.org/2000/svg">
<path d="M12.195 66.15V8.73L0 16.065V8.64L12.195 1.35H18.9V66.15H12.195Z" fill="#394508"/>
<path d="M49.7834 67.455C46.5734 67.455 43.6184 66.885 40.9184 65.745C38.2184 64.605 35.8934 62.985 33.9434 60.885C31.9934 58.755 30.5684 56.22 29.6684 53.28L35.9684 51.39C37.0484 54.6 38.8184 57.03 41.2784 58.68C43.7684 60.33 46.5734 61.125 49.6934 61.065C52.5734 61.005 55.0484 60.36 57.1184 59.13C59.2184 57.9 60.8234 56.19 61.9334 54C63.0434 51.81 63.5984 49.275 63.5984 46.395C63.5984 41.985 62.3084 38.445 59.7284 35.775C57.1784 33.075 53.8034 31.725 49.6034 31.725C48.4334 31.725 47.2034 31.89 45.9134 32.22C44.6234 32.52 43.4234 32.955 42.3134 33.525L38.9834 28.26L64.1834 4.995L65.2634 7.695H32.2334V1.35H69.6734V7.785L47.7134 28.755L47.6234 26.145C52.1234 25.575 56.0834 26.085 59.5034 27.675C62.9234 29.265 65.5934 31.695 67.5134 34.965C69.4634 38.205 70.4384 42.015 70.4384 46.395C70.4384 50.535 69.5384 54.195 67.7384 57.375C65.9684 60.525 63.5234 63 60.4034 64.8C57.2834 66.57 53.7434 67.455 49.7834 67.455Z" fill="#394508"/>
<path d="M99.6645 67.5C95.6745 67.5 92.0745 66.57 88.8645 64.71C85.6845 62.85 83.1645 60.33 81.3045 57.15C79.4445 53.94 78.5145 50.34 78.5145 46.35V21.15C78.5145 17.16 79.4445 13.575 81.3045 10.395C83.1645 7.185 85.6845 4.65 88.8645 2.79C92.0745 0.929999 95.6745 0 99.6645 0C103.654 0 107.239 0.929999 110.419 2.79C113.629 4.65 116.164 7.185 118.024 10.395C119.884 13.575 120.814 17.16 120.814 21.15V46.35C120.814 50.34 119.884 53.94 118.024 57.15C116.164 60.33 113.629 62.85 110.419 64.71C107.239 66.57 103.654 67.5 99.6645 67.5ZM99.6645 61.11C102.334 61.11 104.764 60.465 106.954 59.175C109.144 57.855 110.884 56.1 112.174 53.91C113.464 51.72 114.109 49.305 114.109 46.665V20.835C114.109 18.165 113.464 15.735 112.174 13.545C110.884 11.355 109.144 9.615 106.954 8.325C104.764 7.005 102.334 6.345 99.6645 6.345C96.9945 6.345 94.5645 7.005 92.3745 8.325C90.1845 9.615 88.4445 11.355 87.1545 13.545C85.8645 15.735 85.2195 18.165 85.2195 20.835V46.665C85.2195 49.305 85.8645 51.72 87.1545 53.91C88.4445 56.1 90.1845 57.855 92.3745 59.175C94.5645 60.465 96.9945 61.11 99.6645 61.11Z" fill="#394508"/>
<path d="M136.146 66.15L131.646 61.65L192.081 1.35L196.581 5.805L136.146 66.15ZM183.081 67.5C180.111 67.5 177.396 66.78 174.936 65.34C172.506 63.87 170.556 61.92 169.086 59.49C167.616 57.03 166.881 54.3 166.881 51.3C166.881 48.36 167.631 45.66 169.131 43.2C170.631 40.74 172.611 38.775 175.071 37.305C177.531 35.835 180.201 35.1 183.081 35.1C186.051 35.1 188.766 35.835 191.226 37.305C193.686 38.745 195.636 40.695 197.076 43.155C198.546 45.585 199.281 48.3 199.281 51.3C199.281 54.3 198.546 57.03 197.076 59.49C195.636 61.92 193.686 63.87 191.226 65.34C188.766 66.78 186.051 67.5 183.081 67.5ZM183.081 61.515C184.911 61.515 186.606 61.05 188.166 60.12C189.726 59.19 190.971 57.96 191.901 56.43C192.831 54.87 193.296 53.16 193.296 51.3C193.296 49.44 192.831 47.745 191.901 46.215C190.971 44.655 189.726 43.41 188.166 42.48C186.606 41.55 184.911 41.085 183.081 41.085C181.221 41.085 179.511 41.55 177.951 42.48C176.421 43.41 175.176 44.655 174.216 46.215C173.286 47.745 172.821 49.44 172.821 51.3C172.821 53.16 173.286 54.87 174.216 56.43C175.176 57.96 176.421 59.19 177.951 60.12C179.511 61.05 181.221 61.515 183.081 61.515ZM145.146 32.4C142.176 32.4 139.461 31.68 137.001 30.24C134.541 28.77 132.576 26.82 131.106 24.39C129.666 21.93 128.946 19.2 128.946 16.2C128.946 13.26 129.696 10.56 131.196 8.1C132.696 5.64 134.676 3.675 137.136 2.205C139.596 0.734998 142.266 0 145.146 0C148.116 0 150.816 0.734998 153.246 2.205C155.706 3.645 157.671 5.595 159.141 8.055C160.611 10.485 161.346 13.2 161.346 16.2C161.346 19.2 160.611 21.93 159.141 24.39C157.671 26.82 155.706 28.77 153.246 30.24C150.816 31.68 148.116 32.4 145.146 32.4ZM145.146 26.415C147.006 26.415 148.701 25.95 150.231 25.02C151.791 24.09 153.036 22.86 153.966 21.33C154.896 19.77 155.361 18.06 155.361 16.2C155.361 14.34 154.896 12.645 153.966 11.115C153.036 9.555 151.791 8.31 150.231 7.38C148.701 6.45 147.006 5.985 145.146 5.985C143.286 5.985 141.576 6.45 140.016 7.38C138.486 8.31 137.256 9.555 136.326 11.115C135.396 12.645 134.931 14.34 134.931 16.2C134.931 18.06 135.396 19.77 136.326 21.33C137.256 22.86 138.486 24.09 140.016 25.02C141.576 25.95 143.286 26.415 145.146 26.415Z" fill="#394508"/>
</svg>
