<svg width="116" height="37" viewBox="0 0 116 37" fill="none" xmlns="http://www.w3.org/2000/svg">
<path d="M23.3788 35.4748H0V0H23.3788V5.94635H6.70871V14.5355H21.4475V20.4819H6.70871V29.5285H23.3788V35.4748Z" fill="black"/>
<path d="M37.3354 35.4748C32.863 35.4748 30.4743 33.0353 30.4743 28.7153V14.1289H26.5609V8.94494H28.5938C30.5251 8.94494 31.135 8.03012 31.135 6.20047V1.67718H36.9797V8.94494H42.4178V14.1289H36.9797V30.2908H42.0112V35.4748H37.3354Z" fill="black"/>
<path d="M53.5493 35.4748H47.0439V8.94494H53.5493V14.4339H53.8035C54.4642 11.6386 56.5988 8.94494 60.8171 8.94494H62.2402V15.0946H60.2072C55.8364 15.0946 53.5493 16.3144 53.5493 19.2113V35.4748Z" fill="black"/>
<path d="M71.9899 36.0847C66.6027 36.0847 63.5532 32.9845 63.5532 28.2579C63.5532 22.8198 67.6699 20.1261 74.8869 20.1261H79.4102V18.1948C79.4102 15.2471 77.9363 13.5191 74.4803 13.5191C71.4309 13.5191 69.7029 15.0438 68.4323 16.8734L64.5697 13.4174C66.501 10.368 69.6012 8.33506 74.9377 8.33506C82.1038 8.33506 85.9156 11.7402 85.9156 17.7882V30.2908H88.5584V35.4748H84.9499C82.1546 35.4748 80.4266 33.6452 80.0201 30.9007H79.7151C78.8511 34.3059 75.9542 36.0847 71.9899 36.0847ZM74.1754 31.3581C77.0723 31.3581 79.4102 30.0367 79.4102 27.5464V24.0395H75.2426C71.8375 24.0395 70.1603 25.2085 70.1603 27.2922V28.1562C70.1603 30.2908 71.6342 31.3581 74.1754 31.3581Z" fill="black"/>
<path d="M99.3124 35.4748H92.8069V8.94494H99.3124V13.3666H99.5665C100.634 10.5205 102.87 8.33506 106.987 8.33506C112.425 8.33506 115.474 12.096 115.474 18.7031V35.4748H108.969V19.3638C108.969 15.6028 107.698 13.6715 104.598 13.6715C101.904 13.6715 99.3124 15.0946 99.3124 17.9407V35.4748Z" fill="black"/>
</svg>
