<svg width="64" height="15" viewBox="0 0 64 15" fill="none" xmlns="http://www.w3.org/2000/svg">
<path d="M58.0542 14.7269C57.0473 14.7269 56.1439 14.5063 55.3439 14.0649C54.5439 13.6235 53.9095 13.0029 53.4405 12.2029C52.9854 11.3891 52.7578 10.4375 52.7578 9.34785C52.7578 8.23065 52.9992 7.27207 53.4819 6.4721C53.9647 5.67213 54.6129 5.05836 55.4267 4.63079C56.2404 4.18943 57.1438 3.96875 58.1369 3.96875C59.1438 3.96875 60.0472 4.18943 60.8471 4.63079C61.6609 5.05836 62.3023 5.67213 62.7712 6.4721C63.254 7.27207 63.4953 8.23065 63.4953 9.34785C63.4953 10.3823 63.2608 11.3064 62.7919 12.1202C62.3367 12.9339 61.6954 13.5753 60.8678 14.0442C60.0541 14.4994 59.1162 14.7269 58.0542 14.7269ZM58.0748 12.6994C58.6679 12.6994 59.1851 12.5546 59.6265 12.265C60.0817 11.9615 60.4403 11.5547 60.7023 11.0443C60.9644 10.534 61.0954 9.95472 61.0954 9.30647C61.0954 8.63064 60.9644 8.04445 60.7023 7.54792C60.4403 7.05139 60.0817 6.67209 59.6265 6.41003C59.1851 6.13418 58.6748 5.99626 58.0955 5.99626C57.4887 5.99626 56.9576 6.14108 56.5025 6.43072C56.0611 6.72037 55.7232 7.12035 55.4887 7.63067C55.2543 8.12721 55.137 8.6996 55.137 9.34785C55.137 10.0513 55.2681 10.6581 55.5301 11.1685C55.806 11.665 56.1646 12.0443 56.6059 12.3064C57.0611 12.5684 57.5507 12.6994 58.0748 12.6994Z" fill="#619111"/>
<path d="M45.4763 14.7305C44.4557 14.7305 43.5798 14.4891 42.8488 14.0063C42.1316 13.5098 41.573 12.8547 41.173 12.0409C40.7868 11.2271 40.5938 10.3168 40.5938 9.30998C40.5938 8.31692 40.7868 7.4204 41.173 6.62043C41.573 5.80667 42.1385 5.16532 42.8695 4.69637C43.6005 4.21363 44.4695 3.97226 45.4763 3.97226C46.1935 3.97226 46.8625 4.12398 47.4831 4.42741C48.1038 4.71706 48.6072 5.14463 48.9934 5.71012V0H51.3519V14.4822H49.0555L48.9934 12.9305C48.6624 13.4822 48.1866 13.9236 47.5659 14.2546C46.9452 14.5718 46.2487 14.7305 45.4763 14.7305ZM45.9935 12.6823C46.6142 12.6823 47.1452 12.5374 47.5866 12.2478C48.0279 11.9582 48.3728 11.5651 48.621 11.0685C48.8693 10.5582 48.9934 9.98582 48.9934 9.35136C48.9934 8.62035 48.8486 8.00658 48.559 7.51005C48.2831 7.01352 47.9107 6.64112 47.4418 6.39285C46.9866 6.14459 46.497 6.02045 45.9729 6.02045C45.3936 6.02045 44.8763 6.16528 44.4212 6.45492C43.9798 6.73077 43.6281 7.11696 43.3661 7.61349C43.1178 8.09623 42.9937 8.66863 42.9937 9.33067C42.9937 9.97892 43.1247 10.5582 43.3867 11.0685C43.6488 11.5651 44.0005 11.9582 44.4419 12.2478C44.897 12.5374 45.4143 12.6823 45.9935 12.6823Z" fill="#619111"/>
<path d="M34.6331 14.7269C33.5987 14.7269 32.6953 14.4994 31.9229 14.0442C31.1505 13.5753 30.5437 12.9408 30.1023 12.1408C29.6747 11.3271 29.4609 10.3961 29.4609 9.34785C29.4609 8.25824 29.6747 7.31345 30.1023 6.51348C30.5437 5.71351 31.1505 5.09284 31.9229 4.65148C32.7091 4.19633 33.6194 3.96875 34.6538 3.96875C35.6607 3.96875 36.5365 4.18943 37.2813 4.63079C38.0261 5.05836 38.6123 5.65144 39.0399 6.41003C39.4674 7.16862 39.6812 8.03066 39.6812 8.99614C39.6812 9.18924 39.6743 9.36164 39.6605 9.51336C39.6605 9.66508 39.6467 9.83059 39.6192 10.0099H31.8195C31.8608 10.5478 31.9988 11.0305 32.2332 11.4581C32.4677 11.8719 32.7849 12.196 33.1849 12.4305C33.5987 12.665 34.0677 12.7822 34.5918 12.7822C35.1573 12.7822 35.6331 12.6581 36.0193 12.4098C36.4193 12.1615 36.7296 11.8029 36.9503 11.334H39.4123C39.2192 11.9546 38.9088 12.5201 38.4813 13.0305C38.0675 13.5408 37.5365 13.9546 36.8882 14.2718C36.2538 14.5752 35.5021 14.7269 34.6331 14.7269ZM31.8402 8.37547H37.2813C37.2675 7.61688 36.9986 7.01691 36.4745 6.57554C35.9503 6.13418 35.3228 5.9135 34.5918 5.9135C33.9297 5.9135 33.3298 6.11349 32.7918 6.51348C32.2677 6.91346 31.9505 7.53413 31.8402 8.37547Z" fill="#619111"/>
<path d="M18.9219 14.4822V0H23.701C24.7216 0 25.5975 0.158615 26.3285 0.475844C27.0595 0.793073 27.625 1.25512 28.025 1.862C28.4249 2.46887 28.6249 3.22746 28.6249 4.13777C28.6249 5.1998 28.3422 6.03425 27.7767 6.64112C27.225 7.24799 26.4595 7.66177 25.4802 7.88245L29.5559 14.4822H26.7629L23.1424 8.27554H21.2804V14.4822H18.9219ZM21.2804 6.28941H23.6596C24.3217 6.28941 24.8389 6.19976 25.2113 6.02045C25.5975 5.84115 25.8664 5.59288 26.0181 5.27566C26.1699 4.94463 26.2457 4.56534 26.2457 4.13777C26.2457 3.69641 26.1699 3.31711 26.0181 2.99988C25.8664 2.66886 25.5975 2.42059 25.2113 2.25508C24.8389 2.07578 24.3217 1.98613 23.6596 1.98613H21.2804V6.28941Z" fill="#619111"/>
<path fill-rule="evenodd" clip-rule="evenodd" d="M5.24038 6.28665C3.60911 6.28665 2.28671 7.60905 2.28671 9.24031C2.28671 10.8716 3.60911 12.194 5.24038 12.194H15.5306V14.4807H5.24038C2.3462 14.4807 0 12.1345 0 9.24031C0 6.34614 2.3462 3.99994 5.24038 3.99994H12.958V6.28665H5.24038Z" fill="#619111"/>
<path fill-rule="evenodd" clip-rule="evenodd" d="M12.4869 5.14293L9.00781 1.66382L10.6248 0.046875L15.7208 5.14293L10.6248 10.239L9.00781 8.62204L12.4869 5.14293Z" fill="#619111"/>
</svg>
