<svg width="22" height="22" viewBox="0 0 22 22" fill="none" xmlns="http://www.w3.org/2000/svg">
<path d="M16.2323 5.41102C19.2204 8.39935 19.2199 13.2441 16.2316 16.2324C13.2434 19.2204 8.39922 19.2204 5.41096 16.2324C2.42271 13.2441 2.42215 8.39935 5.41026 5.41102C8.39858 2.42271 13.244 2.42271 16.2323 5.41102ZM12.0604 5.98443C11.376 5.30011 10.2665 5.30011 9.58221 5.98443L5.98505 9.58158C5.30073 10.2659 5.30073 11.3754 5.98505 12.0597L9.58221 15.6569C10.2665 16.3412 11.376 16.3412 12.0604 15.6569L15.6575 12.0597C16.3419 11.3754 16.3419 10.2659 15.6575 9.58158L12.0604 5.98443Z" fill="#619111"/>
</svg>
