<svg width="20" height="30" viewBox="0 0 20 30" fill="none" xmlns="http://www.w3.org/2000/svg">
<g clip-path="url(#clip0_3_17)">
<path d="M19.03 11.91C18.76 11.41 18.23 11.09 17.68 11.09H11.75L13.54 1.76C13.59 1.32 13.52 0.93 13.33 0.63C13.17 0.37 12.93 0.18 12.63 0.08C12.46 0.03 12.29 0 12.12 0C11.66 0 11.21 0.19 10.93 0.52L0.280012 14.52C-0.0499883 14.96 -0.0899883 15.54 0.180012 16.07C0.450012 16.57 0.980012 16.89 1.53001 16.89L7.45001 16.94L5.66001 27.5C5.52001 28.34 6.03001 28.87 6.55001 29.08C7.05001 29.29 7.81001 29.28 8.31001 28.61L18.91 13.48C19.25 13.03 19.29 12.44 19.03 11.91ZM17.95 12.81L7.57001 27.75C7.49001 27.88 7.35001 27.95 7.21001 27.95C7.15001 27.95 7.09001 27.94 7.03001 27.91C6.83001 27.83 6.72001 27.63 6.76001 27.42L8.77001 15.8L1.53001 15.76C1.38001 15.76 1.24001 15.67 1.17001 15.53C1.10001 15.4 1.12001 15.23 1.21001 15.11L11.59 1.29C11.72 1.12 11.94 1.06 12.13 1.15C12.33 1.23 12.43 1.43 12.39 1.64L10.39 12.13L17.62 12.18C17.78 12.18 17.91 12.26 17.98 12.39C18.05 12.53 18.04 12.69 17.95 12.81Z" fill="#394508"/>
</g>
<defs>
<clipPath id="clip0_3_17">
<rect width="19.2" height="29.2" fill="white"/>
</clipPath>
</defs>
</svg>
