<svg width="30" height="30" viewBox="0 0 30 30" fill="none" xmlns="http://www.w3.org/2000/svg">
<g clip-path="url(#clip0_3_3)">
<path fill-rule="evenodd" clip-rule="evenodd" d="M15 0C6.71 0 0 6.72 0 15C0 18.44 1.16 21.61 3.11 24.14C3.29 24.38 3.48 24.61 3.68 24.84C3.82 24.59 4.03 24.37 4.29 24.23C4.09 24.01 3.91 23.79 3.74 23.56C2.5 21.94 1.61 20.05 1.17 17.99C0.99 17.16 0.88 16.3 0.86 15.43C0.85 15.29 0.85 15.14 0.85 15C0.85 14.93 0.85 14.86 0.86 14.79C0.85 14.72 0.85 14.64 0.86 14.57C0.88 13.7 0.99 12.84 1.17 12.01C2.33 6.6 6.59 2.35 12 1.18C12.83 1 13.69 0.89 14.57 0.87C14.64 0.86 14.72 0.86 14.79 0.87C14.86 0.86 14.93 0.86 15 0.86C15.07 0.86 15.14 0.86 15.21 0.87C15.28 0.86 15.36 0.86 15.43 0.87C16.31 0.89 17.17 1 18 1.18C23.4 2.35 27.65 6.6 28.82 12C29 12.83 29.11 13.69 29.13 14.57C29.14 14.64 29.14 14.72 29.13 14.79C29.14 14.86 29.14 14.93 29.14 15C29.14 15.14 29.14 15.29 29.13 15.43C29.11 16.31 29 17.17 28.82 18C27.65 23.4 23.4 27.65 18 28.82C17.17 29 16.31 29.11 15.43 29.13C15.29 29.14 15.14 29.14 15 29.14C14.86 29.14 14.71 29.14 14.57 29.13C13.69 29.11 12.83 29 12 28.82C10.34 28.46 8.78 27.81 7.4 26.93C7.16 26.77 6.92 26.61 6.69 26.44C6.56 26.71 6.38 26.94 6.14 27.11C6.38 27.28 6.63 27.45 6.88 27.61C9.22 29.12 12 30 15 30C23.28 30 30 23.28 30 15C30 6.72 23.28 0 15 0Z" fill="#394508"/>
<path fill-rule="evenodd" clip-rule="evenodd" d="M21.17 6.01C20.36 3.9 19.27 2.22 18 1.18C17.08 0.42 16.07 0 15 0C13.93 0 12.92 0.42 12 1.18C10.33 2.55 8.95999 5.03 8.12999 8.14C8.04999 8.45 7.97999 8.77 7.90999 9.09C7.66999 10.15 7.49999 11.28 7.39999 12.45C7.36999 12.74 7.33999 13.03 7.32999 13.33C7.44999 13.31 7.57999 13.29 7.70999 13.29C7.87999 13.29 8.03999 13.31 8.18999 13.36C8.19999 13.06 8.22999 12.78 8.25999 12.49C8.36999 11.21 8.56999 9.98 8.84999 8.85C8.91999 8.53 8.99999 8.22 9.08999 7.92C9.41999 6.76 9.83999 5.71 10.31 4.79C11.53 2.4 13.06 1.1 14.57 0.9C14.64 0.88 14.71 0.88 14.79 0.87C14.86 0.86 14.93 0.86 15 0.86C15.07 0.86 15.14 0.86 15.21 0.87C15.28 0.88 15.35 0.88 15.43 0.9C16.93 1.1 18.47 2.4 19.69 4.79C19.92 5.24 20.14 5.73 20.34 6.24C20.44 6.51 20.54 6.78 20.64 7.06C20.87 6.93 21.14 6.86 21.43 6.86H21.47C21.38 6.57 21.28 6.29 21.17 6.01ZM22.7 14.57C22.69 13.31 22.59 12.1 22.42 10.94C22.38 10.64 22.33 10.34 22.28 10.05C22.03 10.2 21.75 10.29 21.45 10.29C21.5 10.57 21.54 10.85 21.58 11.13C21.74 12.23 21.83 13.38 21.84 14.57C21.84 14.71 21.84 14.86 21.84 15C21.84 15.14 21.84 15.29 21.84 15.43C21.82 17.48 21.57 19.42 21.15 21.15C21.08 21.47 20.99 21.78 20.91 22.08C20.57 23.24 20.16 24.29 19.69 25.21C18.47 27.6 16.93 28.9 15.43 29.1C15.28 29.13 15.14 29.14 15 29.14C14.86 29.14 14.71 29.13 14.57 29.1C13.06 28.9 11.53 27.6 10.31 25.21C9.83999 24.29 9.41999 23.24 9.08999 22.08C8.99999 21.78 8.91999 21.47 8.84999 21.15C8.56999 20.02 8.36999 18.79 8.25999 17.51C8.22999 17.22 8.19999 16.94 8.18999 16.64C8.03999 16.69 7.87999 16.71 7.70999 16.71C7.57999 16.71 7.44999 16.69 7.32999 16.67C7.33999 16.97 7.36999 17.26 7.39999 17.55C7.49999 18.72 7.66999 19.85 7.90999 20.91C7.97999 21.23 8.04999 21.55 8.12999 21.86C8.95999 24.97 10.33 27.45 12 28.82C12.92 29.58 13.93 30 15 30C16.07 30 17.08 29.58 18 28.82C19.67 27.45 21.03 24.97 21.86 21.86C21.94 21.55 22.02 21.23 22.09 20.91C22.46 19.22 22.68 17.37 22.7 15.43C22.71 15.29 22.71 15.14 22.71 15C22.71 14.86 22.71 14.71 22.7 14.57Z" fill="#394508"/>
<path fill-rule="evenodd" clip-rule="evenodd" d="M28.82 12C27.78 10.73 26.1 9.64004 23.99 8.83004C23.71 8.72004 23.43 8.62004 23.14 8.53004V8.57004C23.14 8.86004 23.07 9.13004 22.94 9.37004C23.22 9.46004 23.5 9.56004 23.76 9.66004C24.28 9.86004 24.76 10.08 25.21 10.31C27.6 11.53 28.9 13.07 29.1 14.57C29.11 14.64 29.13 14.72 29.13 14.79C29.14 14.86 29.14 14.93 29.14 15C29.14 15.14 29.13 15.28 29.1 15.43C28.9 16.93 27.6 18.47 25.21 19.69C24.3 20.16 23.25 20.57 22.09 20.91C21.79 20.99 21.47 21.08 21.15 21.15C19.42 21.57 17.48 21.83 15.43 21.85C15.29 21.86 15.15 21.86 15 21.86C14.86 21.86 14.71 21.86 14.57 21.85C12.52 21.83 10.58 21.58 8.85 21.15C8.53 21.08 8.21 21 7.91 20.91C6.75 20.57 5.7 20.16 4.78 19.69C2.4 18.47 1.09 16.93 0.89 15.43C0.86 15.28 0.85 15.14 0.85 15C0.85 14.93 0.85 14.86 0.86 14.79C0.87 14.72 0.87 14.64 0.89 14.57C1.09 13.07 2.4 11.53 4.78 10.31C5.7 9.84004 6.75 9.43004 7.91 9.09004C8.21 9.00004 8.53 8.92004 8.85 8.85004C10.58 8.42004 12.52 8.17004 14.57 8.15004C14.71 8.14004 14.86 8.14004 15 8.14004C15.15 8.14004 15.29 8.14004 15.43 8.15004C16.62 8.15004 17.77 8.25004 18.86 8.42004C19.15 8.45004 19.43 8.49004 19.71 8.55004C19.71 8.25004 19.8 7.96004 19.94 7.72004C19.65 7.66004 19.35 7.62004 19.05 7.58004C17.89 7.41004 16.68 7.31004 15.43 7.30004C15.29 7.29004 15.14 7.29004 15 7.29004C14.86 7.29004 14.71 7.29004 14.57 7.30004C12.62 7.32004 10.78 7.54004 9.09 7.92004C8.76 7.98004 8.44 8.06004 8.13 8.14004C5.01 8.97004 2.54 10.34 1.17 12.01C0.42 12.93 0 13.94 0 15C0 16.06 0.42 17.07 1.17 17.99C2.54 19.66 5.01 21.03 8.13 21.86C8.44 21.94 8.76 22.02 9.09 22.08C10.78 22.46 12.62 22.68 14.57 22.7C14.71 22.71 14.86 22.71 15 22.71C15.14 22.71 15.29 22.71 15.43 22.7C17.37 22.68 19.22 22.46 20.91 22.08C21.23 22.02 21.55 21.94 21.86 21.86C24.97 21.03 27.45 19.67 28.82 18C29.58 17.08 30 16.06 30 15C30 13.94 29.58 12.92 28.82 12Z" fill="#394508"/>
<path fill-rule="evenodd" clip-rule="evenodd" d="M21.43 6C21.34 6 21.25 6 21.17 6.01C20.87 6.04 20.59 6.12 20.34 6.24C19.76 6.51 19.3 6.99 19.05 7.58C18.94 7.84 18.87 8.12 18.86 8.42C18.85 8.47 18.85 8.52 18.85 8.57C18.85 9.99 20.01 11.14 21.43 11.14C21.48 11.14 21.53 11.14 21.58 11.13C21.88 11.12 22.16 11.05 22.42 10.94C23.01 10.7 23.49 10.24 23.76 9.66C23.88 9.41 23.96 9.13 23.99 8.83C24 8.74 24 8.66 24 8.57C24 7.15 22.85 6 21.43 6ZM23.14 8.57C23.14 8.86 23.07 9.13 22.94 9.37C22.79 9.66 22.56 9.9 22.28 10.05C22.03 10.2 21.75 10.29 21.45 10.29H21.43C20.48 10.29 19.71 9.52 19.71 8.57V8.55C19.71 8.25 19.8 7.96 19.94 7.72C20.1 7.43 20.34 7.2 20.64 7.06C20.87 6.93 21.14 6.86 21.43 6.86H21.47C22.38 6.88 23.12 7.61 23.14 8.53V8.57Z" fill="#394508"/>
<path fill-rule="evenodd" clip-rule="evenodd" d="M5.14001 23.14C4.62001 23.14 4.14001 23.29 3.74001 23.56C3.50001 23.71 3.28001 23.91 3.11001 24.14C2.77001 24.58 2.57001 25.12 2.57001 25.71C2.57001 27.13 3.72001 28.29 5.14001 28.29C5.81001 28.29 6.42001 28.03 6.88001 27.61C7.09001 27.42 7.26001 27.19 7.40001 26.93C7.60001 26.56 7.71001 26.15 7.71001 25.71C7.71001 24.29 6.56001 23.14 5.14001 23.14ZM6.14001 27.11C5.86001 27.31 5.52001 27.43 5.14001 27.43C4.19001 27.43 3.43001 26.66 3.43001 25.71C3.43001 25.39 3.52001 25.1 3.68001 24.84C3.82001 24.59 4.03001 24.37 4.29001 24.23C4.54001 24.08 4.83001 24 5.14001 24C6.09001 24 6.85001 24.77 6.85001 25.71C6.85001 25.97 6.79001 26.22 6.69001 26.44C6.56001 26.71 6.38001 26.94 6.14001 27.11Z" fill="#394508"/>
<path fill-rule="evenodd" clip-rule="evenodd" d="M6.06001 14.5699C6.02001 14.7099 6.00001 14.8499 6.00001 14.9999C6.00001 15.1499 6.02001 15.2899 6.06001 15.4299H0.570007V14.5699H6.06001Z" fill="#394508"/>
<path fill-rule="evenodd" clip-rule="evenodd" d="M29.71 14.5699V15.4299H9.37C9.41 15.2899 9.43 15.1499 9.43 14.9999C9.43 14.8499 9.41 14.7099 9.37 14.5699H29.71Z" fill="#394508"/>
<path fill-rule="evenodd" clip-rule="evenodd" d="M14.5701 29.5699V0.429932H15.4301V29.5699H14.5701Z" fill="#394508"/>
<path fill-rule="evenodd" clip-rule="evenodd" d="M10.24 14.5701C10.07 13.5301 9.28001 12.7101 8.26002 12.4901C8.08001 12.4501 7.90001 12.4301 7.71001 12.4301C7.60001 12.4301 7.50001 12.4401 7.40001 12.4501C6.27001 12.5901 5.36001 13.4601 5.18001 14.5701C5.15001 14.7101 5.14001 14.8501 5.14001 15.0001C5.14001 15.1501 5.15001 15.2901 5.18001 15.4301C5.36001 16.5401 6.27001 17.4101 7.40001 17.5501C7.50001 17.5601 7.60001 17.5701 7.71001 17.5701C7.90001 17.5701 8.08001 17.5501 8.26002 17.5101C9.28001 17.2901 10.07 16.4701 10.24 15.4301C10.27 15.2901 10.28 15.1501 10.28 15.0001C10.28 14.8501 10.27 14.7101 10.24 14.5701ZM8.19001 16.6401C8.04001 16.6901 7.88001 16.7101 7.71001 16.7101C7.58001 16.7101 7.45001 16.6901 7.33001 16.6701C6.71001 16.5201 6.21001 16.0501 6.06001 15.4301C6.02001 15.2901 6.00001 15.1501 6.00001 15.0001C6.00001 14.8501 6.02001 14.7101 6.06001 14.5701C6.21001 13.9501 6.71001 13.4801 7.33001 13.3301C7.45001 13.3101 7.58001 13.2901 7.71001 13.2901C7.88001 13.2901 8.04001 13.3101 8.19001 13.3601C8.77001 13.5201 9.22001 13.9901 9.37001 14.5701C9.41001 14.7101 9.43002 14.8501 9.43002 15.0001C9.43002 15.1501 9.41001 15.2901 9.37001 15.4301C9.22001 16.0101 8.77001 16.4801 8.19001 16.6401Z" fill="#394508"/>
</g>
<defs>
<clipPath id="clip0_3_3">
<rect width="30" height="30" fill="white"/>
</clipPath>
</defs>
</svg>
