<svg width="24" height="29" viewBox="0 0 24 29" fill="none" xmlns="http://www.w3.org/2000/svg">
<g clip-path="url(#clip0_3_23)">
<path d="M23.64 4.31997L12.55 0.0599745C12.36 -0.0100255 12.14 -0.0200255 11.95 0.0599745L0.19 4.36997C0.07 4.44997 0 4.56997 0 4.69997V17.49C0 20.25 1.14 22.44 3.2 23.67L11.7 28.73C11.86 28.83 12.07 28.83 12.24 28.73L20.73 23.67C22.8 22.44 23.93 20.25 23.93 17.49V4.70997C23.93 4.53997 23.82 4.38997 23.64 4.31997ZM22.97 17.49C22.97 18.92 22.61 21.53 20.2 22.96L11.97 27.87L3.74 22.96H3.73L3.51 22.83C1.3 21.36 0.96 18.87 0.96 17.49V4.98997L12.25 0.759974L22.97 4.98997V17.49Z" fill="#394508"/>
<path d="M17.59 10.65C17.59 10.76 17.54 10.86 17.46 10.94L11.1 16.96C10.92 17.13 10.59 17.13 10.4 16.96L7.08999 13.83C7.00999 13.75 6.95999 13.64 6.95999 13.53C6.95999 13.43 7.00999 13.32 7.08999 13.24C7.18999 13.15 7.31999 13.11 7.43999 13.11C7.56999 13.11 7.69999 13.15 7.79999 13.24L10.75 16.04L16.76 10.36C16.95 10.18 17.27 10.18 17.46 10.36C17.54 10.44 17.59 10.54 17.59 10.65Z" fill="#394508"/>
</g>
<defs>
<clipPath id="clip0_3_23">
<rect width="23.93" height="28.81" fill="white"/>
</clipPath>
</defs>
</svg>
