<svg width="21" height="21" viewBox="0 0 21 21" fill="none" xmlns="http://www.w3.org/2000/svg">
<g clip-path="url(#clip0_0_104)">
<path d="M0.00678635 8.1725V8.25157C-0.0147762 6.09524 0.826193 3.97484 2.40032 2.40072C3.96006 0.84097 6.04452 0 8.17929 0H12.8154C14.9502 0 17.0274 0.84097 18.5872 2.39353C20.1541 3.96765 20.9879 6.08086 20.9671 8.24438V8.16532V12.8014V12.7224C20.9886 14.8787 20.1477 16.9991 18.5735 18.5732C16.9994 20.1473 14.8862 20.9811 12.7227 20.9667H12.8017H8.16563H8.2447C6.08836 20.9883 3.96797 20.1473 2.39385 18.5732C0.819725 16.9991 -0.0140591 14.8859 0.00031662 12.7224V12.8014L0.00750542 8.1725H0.00678635ZM0.251171 10.142C0.229609 10.0557 0.208044 9.97664 0.193668 9.89038C0.208044 9.97664 0.229609 10.0629 0.251171 10.142C0.272734 10.2282 0.287111 10.3073 0.294298 10.4007C0.272736 10.3145 0.265547 10.2282 0.251171 10.142ZM0.00678635 8.35939C0.00678635 8.4097 0.00678635 8.45283 0.0139732 8.49595C0.0139732 8.45283 0.0139751 8.4097 0.00678635 8.35939ZM0.0139732 8.61815C0.0139732 8.66846 0.021162 8.71159 0.021162 8.75471C0.021162 8.71159 0.0139732 8.66127 0.0139732 8.61815ZM0.0283489 8.86972C0.0355377 8.91284 0.0355377 8.96316 0.0427265 8.9991C0.0427265 8.96316 0.0355377 8.92003 0.0283489 8.86972ZM0.136166 9.63881C0.143354 9.68194 0.150541 9.73225 0.164917 9.76819C0.15773 9.73225 0.143354 9.68194 0.136166 9.63881ZM15.5971 4.85175C15.1946 3.94609 14.6339 3.13387 13.9223 2.42228C13.0814 1.58131 12.0679 0.934411 10.961 0.531896C10.6591 0.416891 10.3284 0.416891 10.0194 0.531896C8.91244 0.934411 7.89178 1.58131 7.05799 2.42228C6.34641 3.13387 5.78576 3.94609 5.38324 4.85175C5.32574 4.97394 5.44793 5.09613 5.57012 5.05301C7.03643 4.56424 8.63931 4.49236 10.1487 4.87331C10.3716 4.93082 10.6016 4.93082 10.8244 4.87331C12.3338 4.49955 13.9367 4.56424 15.403 5.05301C15.5324 5.10332 15.6546 4.98113 15.5971 4.85175ZM20.6932 10.4007C20.7004 10.3145 20.7148 10.2282 20.7363 10.142C20.7579 10.0557 20.7795 9.97664 20.7938 9.89038C20.7723 9.97664 20.7579 10.0557 20.7363 10.142C20.7076 10.2282 20.7004 10.3145 20.6932 10.4007ZM20.9592 8.50314C20.9592 8.45283 20.9663 8.4097 20.9663 8.36657C20.9592 8.4097 20.9592 8.45283 20.9592 8.50314ZM20.8585 9.50943C20.8657 9.4663 20.8729 9.42318 20.8801 9.38005C20.8729 9.43036 20.8657 9.47349 20.8585 9.50943ZM20.9304 9.00629C20.9376 8.96316 20.9376 8.91284 20.9448 8.87691C20.9376 8.92003 20.9304 8.96316 20.9304 9.00629ZM20.952 8.75471C20.952 8.7044 20.9592 8.66127 20.9592 8.61815C20.9592 8.66127 20.952 8.71159 20.952 8.75471ZM20.722 10.832C20.7435 10.9182 20.7651 10.9973 20.7795 11.0836C20.7651 10.9973 20.7435 10.911 20.722 10.832C20.7004 10.7457 20.686 10.6667 20.6788 10.5732C20.7004 10.6595 20.7076 10.7457 20.722 10.832ZM20.9671 12.6145C20.9671 12.5642 20.9671 12.5211 20.9599 12.478C20.9599 12.5211 20.9599 12.5642 20.9671 12.6145ZM20.9592 12.3558C20.9592 12.3055 20.952 12.2623 20.952 12.2192C20.952 12.2623 20.9592 12.3127 20.9592 12.3558ZM20.9448 12.1042C20.9376 12.0611 20.9376 12.0108 20.9304 11.9748C20.9304 12.0108 20.9376 12.0539 20.9448 12.1042ZM20.8801 11.5867C20.8729 11.5436 20.8657 11.5004 20.8585 11.4573C20.8657 11.5076 20.8729 11.5436 20.8801 11.5867ZM20.837 11.3351C20.8298 11.292 20.8226 11.2417 20.8082 11.2057C20.8154 11.2417 20.8298 11.292 20.837 11.3351ZM16.1002 10.142C16.0427 10.3648 16.0427 10.5948 16.1002 10.8176C16.474 12.327 16.4093 13.9299 15.9205 15.3962C15.8774 15.5256 16.0068 15.6406 16.1218 15.5831C17.0274 15.1806 17.8397 14.6199 18.5512 13.9083C19.3922 13.0674 20.0391 12.0539 20.4416 10.947C20.5566 10.6451 20.5566 10.3145 20.4416 10.0054C20.0391 8.89847 19.3922 7.8778 18.5512 7.04402C17.8397 6.33243 17.0274 5.77179 16.1218 5.36927C15.9996 5.31177 15.8774 5.43396 15.9205 5.55615C16.4093 7.04402 16.4668 8.63252 16.1002 10.142ZM10.8316 20.7224C10.9178 20.7439 10.9969 20.7655 11.0831 20.7799C10.9969 20.7655 10.9106 20.7439 10.8316 20.7224C10.7453 20.7008 10.6663 20.6864 10.5728 20.6792C10.6591 20.7008 10.7453 20.708 10.8316 20.7224ZM12.6141 20.9667C12.5638 20.9667 12.5207 20.9667 12.4776 20.9596C12.5207 20.9596 12.5638 20.9596 12.6141 20.9667ZM12.3554 20.9596C12.3051 20.9596 12.2619 20.9524 12.2188 20.9524C12.2619 20.9524 12.3123 20.9596 12.3554 20.9596ZM12.1038 20.9452C12.0607 20.938 12.0104 20.938 11.9744 20.9308C12.0104 20.9308 12.0535 20.938 12.1038 20.9452ZM11.3347 20.8374C11.2916 20.8302 11.2413 20.823 11.2053 20.8086C11.2413 20.8158 11.2916 20.8302 11.3347 20.8374ZM10.4003 20.6936C10.3141 20.7008 10.2278 20.7152 10.1416 20.7367C10.0553 20.7583 9.97623 20.7799 9.88998 20.7942C9.97623 20.7727 10.0553 20.7583 10.1416 20.7367C10.2278 20.708 10.3141 20.7008 10.4003 20.6936ZM8.50274 20.9596C8.45242 20.9596 8.4093 20.9667 8.36617 20.9667C8.4093 20.9596 8.45242 20.9596 8.50274 20.9596ZM9.50903 20.8589C9.4659 20.8661 9.42277 20.8733 9.37965 20.8805C9.42996 20.8733 9.47309 20.8661 9.50903 20.8589ZM9.00588 20.9308C8.96276 20.938 8.91244 20.938 8.8765 20.9452C8.91963 20.938 8.96276 20.9308 9.00588 20.9308ZM8.75431 20.9524C8.70399 20.9524 8.66087 20.9596 8.61774 20.9596C8.66087 20.9596 8.71118 20.9524 8.75431 20.9524ZM5.37605 16.1222C5.77857 17.0278 6.33922 17.8401 7.05081 18.5517C7.89178 19.3926 8.90525 20.0395 10.0122 20.442C10.3141 20.557 10.6447 20.557 10.9538 20.442C12.0607 20.0395 13.0814 19.3926 13.9151 18.5517C14.6267 17.8401 15.1874 17.0207 15.5899 16.1222C15.6474 16 15.5252 15.8778 15.403 15.9209C13.9367 16.4169 12.3338 16.4816 10.8244 16.1006C10.6016 16.0431 10.3716 16.0431 10.1487 16.1006C8.63931 16.4816 7.03643 16.4097 5.57012 15.9209C5.44074 15.8706 5.31855 15.9928 5.37605 16.1222ZM5.16042 10.9542C5.56294 12.0611 6.20984 13.0818 7.05081 13.9155C7.89178 14.7565 8.90525 15.4034 10.0122 15.8059C10.3141 15.9209 10.6447 15.9209 10.9538 15.8059C12.0607 15.4034 13.0814 14.7565 13.9151 13.9155C14.7561 13.0818 15.4102 12.0683 15.8055 10.9542C15.9205 10.6523 15.9205 10.3216 15.8055 10.0126C15.403 8.90566 14.7561 7.88499 13.9151 7.05121C13.0742 6.21743 12.0607 5.56334 10.9538 5.16082C10.6519 5.04582 10.3212 5.04582 10.0122 5.16082C8.90525 5.56334 7.88459 6.21024 7.05081 7.05121C6.20984 7.89218 5.56294 8.90566 5.16042 10.0126C5.05979 10.3216 5.05979 10.6523 5.16042 10.9542ZM0.531494 10.9542C0.93401 12.0611 1.58091 13.0818 2.42188 13.9155C3.13347 14.6271 3.94569 15.1878 4.85135 15.5903C4.97354 15.6478 5.09573 15.5256 5.0526 15.4034C4.56384 13.9371 4.49196 12.3342 4.87291 10.8248C4.93041 10.602 4.93041 10.372 4.87291 10.1491C4.49915 8.63971 4.56384 7.03683 5.0526 5.57053C5.09573 5.44115 4.96635 5.32614 4.85135 5.38365C3.94569 5.78616 3.13347 6.34681 2.42188 7.0584C1.58091 7.89937 0.93401 8.91284 0.531494 10.0198C0.423677 10.3216 0.423677 10.6523 0.531494 10.9542ZM0.279922 10.5732C0.272734 10.6595 0.258358 10.7457 0.236795 10.832C0.215231 10.9182 0.193668 10.9973 0.179293 11.0836C0.200857 10.9973 0.215231 10.9182 0.236795 10.832C0.265547 10.7457 0.272734 10.6595 0.279922 10.5732ZM0.0139732 12.4708C0.0139732 12.5211 0.00678635 12.5642 0.00678635 12.6074C0.0139751 12.5642 0.0139732 12.5211 0.0139732 12.4708ZM0.114603 11.4645C0.107416 11.5076 0.100227 11.5508 0.0930386 11.5939C0.100227 11.5436 0.107416 11.5076 0.114603 11.4645ZM0.0427265 11.9677C0.0355377 12.0108 0.0355377 12.0611 0.0283489 12.097C0.0355377 12.0539 0.0427265 12.0108 0.0427265 11.9677ZM0.021162 12.2192C0.021162 12.2695 0.0139732 12.3127 0.0139732 12.3558C0.0139732 12.3127 0.021162 12.2623 0.021162 12.2192Z" fill="#619111"/>
</g>
<defs>
<clipPath id="clip0_0_104">
<rect width="20.9675" height="20.9675" fill="white" transform="matrix(-1 0 0 1 20.9675 0)"/>
</clipPath>
</defs>
</svg>
