<svg width="143" height="99" viewBox="0 0 143 99" fill="none" xmlns="http://www.w3.org/2000/svg">
<path d="M0 86.2576H9.81975V98.4587H0V86.2576Z" fill="#394508" fill-opacity="0.5"/>
<path d="M12.1481 68.181H21.9678V98.4586H12.1481V68.181Z" fill="#394508" fill-opacity="0.5"/>
<path d="M24.2961 72.459H33.9975V98.4586H24.2961V72.459Z" fill="#394508" fill-opacity="0.5"/>
<path d="M36.3258 64.3099H46.0271V98.4586H36.3258V64.3099Z" fill="#394508" fill-opacity="0.5"/>
<path d="M48.3554 61.2055H58.0568V98.4586H48.3554V61.2055Z" fill="#394508" fill-opacity="0.5"/>
<path d="M60.3851 48.7878H70.0864V98.4586H60.3851V48.7878Z" fill="#394508" fill-opacity="0.5"/>
<path d="M72.4147 55.7728H82.116V98.4586H72.4147V55.7728Z" fill="#394508" fill-opacity="0.5"/>
<path d="M84.4443 60.7991H94.1457V98.4585H84.4443V60.7991Z" fill="#394508" fill-opacity="0.5"/>
<path d="M96.474 35.594H106.175V98.4586H96.474V35.594Z" fill="#394508" fill-opacity="0.5"/>
<path d="M108.504 24.7285H118.205V98.4586H108.504V24.7285Z" fill="#394508" fill-opacity="0.5"/>
<path d="M120.533 15.4152H130.235V98.4586H120.533V15.4152Z" fill="#394508" fill-opacity="0.5"/>
<path d="M132.563 1.83339H142.264V98.4586H132.563V1.83339Z" fill="#394508" fill-opacity="0.5"/>
<path d="M6.47088 86.0143C6.47088 86.9808 5.68738 87.7643 4.72088 87.7643C3.75438 87.7643 2.97088 86.9808 2.97088 86.0143C2.97088 85.0478 3.75438 84.2643 4.72088 84.2643C5.68738 84.2643 6.47088 85.0478 6.47088 86.0143Z" fill="#394508"/>
<path d="M91 60.7903C91 61.7568 90.2165 62.5403 89.25 62.5403C88.2835 62.5403 87.5 61.7568 87.5 60.7903C87.5 59.8238 88.2835 59.0403 89.25 59.0403C90.2165 59.0403 91 59.8238 91 60.7903Z" fill="#394508"/>
<path d="M139.148 1.75C139.148 2.7165 138.365 3.5 137.398 3.5C136.432 3.5 135.648 2.7165 135.648 1.75C135.648 0.783502 136.432 0 137.398 0C138.365 0 139.148 0.783502 139.148 1.75Z" fill="#394508"/>
<path fill-rule="evenodd" clip-rule="evenodd" d="M137.616 1.94613L136.947 2.76679L136.616 2.49723L137.285 1.67657L137.616 1.94613ZM135.609 4.40812L134.272 6.04945L133.941 5.77989L135.279 4.13856L135.609 4.40812ZM132.934 7.69078L131.597 9.33211L131.266 9.06255L132.603 7.42122L132.934 7.69078ZM130.259 10.9734L128.922 12.6148L128.591 12.3452L129.928 10.7039L130.259 10.9734ZM127.584 14.2561L126.246 15.8974L125.916 15.6279L127.253 13.9865L127.584 14.2561ZM124.909 17.5388L123.571 19.1801L123.24 18.9105L124.578 17.2692L124.909 17.5388ZM122.234 20.8214L120.896 22.4627L120.565 22.1932L121.903 20.5519L122.234 20.8214ZM119.559 24.1041L118.221 25.7454L117.89 25.4759L119.228 23.8345L119.559 24.1041ZM116.883 27.3867L115.546 29.0281L115.215 28.7585L116.553 27.1172L116.883 27.3867ZM114.208 30.6694L112.871 32.3107L112.54 32.0412L113.878 30.3998L114.208 30.6694ZM111.533 33.9521L110.196 35.5934L109.865 35.3238L111.202 33.6825L111.533 33.9521ZM108.858 37.2347L107.52 38.8761L107.19 38.6065L108.527 36.9652L108.858 37.2347ZM106.183 40.5174L104.845 42.1587L104.515 41.8892L105.852 40.2478L106.183 40.5174ZM103.508 43.8L102.17 45.4414L101.839 45.1718L103.177 43.5305L103.508 43.8ZM100.833 47.0827L99.4951 48.724L99.1643 48.4545L100.502 46.8131L100.833 47.0827ZM98.1575 50.3654L96.82 52.0067L96.4892 51.7371L97.8268 50.0958L98.1575 50.3654ZM95.4824 53.648L94.1449 55.2894L93.8141 55.0198L95.1516 53.3785L95.4824 53.648ZM92.8073 56.9307L91.4697 58.572L91.1389 58.3025L92.4765 56.6611L92.8073 56.9307ZM90.1322 60.2133L89.4218 61.085L88.3506 61.4031L88.2291 60.9941L89.1742 60.7134L89.8014 59.9438L90.1322 60.2133ZM86.3344 62.0018L84.3181 62.6005L84.1966 62.1915L86.2129 61.5928L86.3344 62.0018ZM82.3018 63.1992L80.2855 63.7979L80.1641 63.3889L82.1804 62.7902L82.3018 63.1992ZM78.2693 64.3967L76.253 64.9954L76.1316 64.5863L78.1478 63.9876L78.2693 64.3967ZM74.2367 65.5941L72.2205 66.1928L72.099 65.7837L74.1153 65.185L74.2367 65.5941ZM70.2042 66.7915L68.1879 67.3902L68.0665 66.9812L70.0828 66.3824L70.2042 66.7915ZM66.1717 67.9889L64.1554 68.5876L64.034 68.1786L66.0502 67.5799L66.1717 67.9889ZM62.1392 69.1863L60.1229 69.785L60.0014 69.376L62.0177 68.7773L62.1392 69.1863ZM58.1066 70.3838L56.0904 70.9825L55.9689 70.5734L57.9852 69.9747L58.1066 70.3838ZM54.0741 71.5812L52.0578 72.1799L51.9364 71.7708L53.9526 71.1721L54.0741 71.5812ZM50.0416 72.7786L48.0253 73.3773L47.9038 72.9682L49.9201 72.3695L50.0416 72.7786ZM46.009 73.976L43.9928 74.5747L43.8713 74.1657L45.8876 73.567L46.009 73.976ZM41.9765 75.1734L39.9602 75.7721L39.8388 75.3631L41.855 74.7644L41.9765 75.1734ZM37.944 76.3708L35.9277 76.9696L35.8062 76.5605L37.8225 75.9618L37.944 76.3708ZM33.9114 77.5683L31.8952 78.167L31.7737 77.7579L33.79 77.1592L33.9114 77.5683ZM29.8789 78.7657L27.8626 79.3644L27.7412 78.9553L29.7574 78.3566L29.8789 78.7657ZM25.8464 79.9631L23.8301 80.5618L23.7086 80.1528L25.7249 79.554L25.8464 79.9631ZM21.8138 81.1605L19.7976 81.7592L19.6761 81.3502L21.6924 80.7515L21.8138 81.1605ZM17.7813 82.3579L15.765 82.9566L15.6436 82.5476L17.6598 81.9489L17.7813 82.3579ZM13.7488 83.5554L11.7325 84.1541L11.611 83.745L13.6273 83.1463L13.7488 83.5554ZM9.71623 84.7528L7.69997 85.3515L7.5785 84.9424L9.59477 84.3437L9.71623 84.7528ZM5.6837 85.9502L4.67557 86.2495L4.55411 85.8405L5.56224 85.5411L5.6837 85.9502Z" fill="#394508"/>
</svg>
