<svg width="125" height="112" viewBox="0 0 125 112" fill="none" xmlns="http://www.w3.org/2000/svg">
<path d="M95 56.5C95 71.6878 82.6878 84 67.5 84C52.3122 84 40 71.6878 40 56.5C40 41.3122 52.3122 29 67.5 29C82.6878 29 95 41.3122 95 56.5Z" fill="#394508"/>
<path fill-rule="evenodd" clip-rule="evenodd" d="M123.991 57.0034L123.491 56.9946C123.497 56.6638 123.5 56.3322 123.5 56C123.5 55.6678 123.497 55.3362 123.491 55.0054L123.991 54.9966C123.997 55.3304 124 55.6648 124 56C124 56.3352 123.997 56.6696 123.991 57.0034ZM123.921 53.0016L123.422 53.0279C123.387 52.3651 123.34 51.7054 123.282 51.049L123.78 51.005C123.839 51.6673 123.886 52.3329 123.921 53.0016ZM123.569 49.0164L123.073 49.0781C122.991 48.4212 122.898 47.7677 122.793 47.1181L123.287 47.0387C123.392 47.6942 123.486 48.3535 123.569 49.0164ZM122.934 45.0709L122.444 45.168C122.315 44.5179 122.175 43.872 122.024 43.2304L122.511 43.1158C122.663 43.7632 122.804 44.415 122.934 45.0709ZM122.018 41.1787L121.535 41.3107C121.361 40.6728 121.175 40.0394 120.978 39.4109L121.456 39.2616C121.654 39.8958 121.841 40.535 122.018 41.1787ZM120.824 37.3634L120.353 37.5298C120.132 36.9057 119.901 36.2868 119.66 35.6732L120.125 35.49C120.369 36.1092 120.602 36.7337 120.824 37.3634ZM119.359 33.6437L118.901 33.8435C118.637 33.2374 118.362 32.6369 118.077 32.0423L118.528 31.8262C118.816 32.4262 119.093 33.0321 119.359 33.6437ZM117.631 30.0384L117.189 30.2705C116.882 29.6849 116.564 29.1054 116.237 28.5323L116.672 28.2845C117.002 28.8627 117.322 29.4474 117.631 30.0384ZM115.65 26.5663C115.299 25.9992 114.938 25.4389 114.568 24.8855L114.152 25.1637C114.519 25.7121 114.877 26.2675 115.225 26.8295L115.65 26.5663ZM113.426 23.244L113.021 23.5368C112.634 23.0011 112.237 22.4725 111.832 21.9514L112.226 21.6444C112.636 22.1702 113.035 22.7035 113.426 23.244ZM110.971 20.0886L110.588 20.4094C110.164 19.9026 109.731 19.4035 109.289 18.9124L109.661 18.5781C110.107 19.0737 110.543 19.5773 110.971 20.0886ZM108.299 17.1151L107.939 17.4623C107.48 16.9871 107.013 16.5199 106.538 16.0612L106.885 15.7014C107.364 16.1643 107.836 16.6356 108.299 17.1151ZM105.422 14.3387L105.088 14.7106C104.596 14.2691 104.097 13.8363 103.591 13.4123L103.911 13.0288C104.423 13.4566 104.926 13.8933 105.422 14.3387ZM102.356 11.7735L102.049 12.1681C101.527 11.7628 100.999 11.3665 100.463 10.9795L100.756 10.5742C101.297 10.9646 101.83 11.3645 102.356 11.7735ZM99.1145 9.43233L98.8363 9.84782C98.2879 9.48064 97.7325 9.12298 97.1705 8.77508L97.4337 8.34995C98.0007 8.70098 98.5611 9.06185 99.1145 9.43233ZM95.7155 7.32835L95.4677 7.76262C94.8946 7.43557 94.3151 7.11844 93.7295 6.81147L93.9616 6.36862C94.5525 6.67837 95.1373 6.99835 95.7155 7.32835ZM92.1738 5.47198L91.9577 5.92287C91.3631 5.63787 90.7626 5.36315 90.1565 5.09895L90.3563 4.6406C90.9679 4.9072 91.5738 5.1844 92.1738 5.47198ZM88.51 3.87496L88.3268 4.34019C87.7132 4.09856 87.0942 3.86755 86.4702 3.64739L86.6366 3.17587C87.2663 3.39804 87.8908 3.63114 88.51 3.87496ZM84.7384 2.54438L84.5891 3.02158C83.9606 2.82497 83.3272 2.63923 82.6893 2.4646L82.8213 1.98234C83.465 2.15856 84.1041 2.34598 84.7384 2.54438ZM80.8842 1.48932L80.7696 1.97601C80.128 1.82493 79.482 1.68499 78.832 1.5564L78.9291 1.0659C79.585 1.19566 80.2368 1.33687 80.8842 1.48932ZM76.9613 0.713152L76.8819 1.20681C76.2322 1.10232 75.5788 1.00911 74.9218 0.927384L74.9836 0.431208C75.6465 0.513673 76.3058 0.607723 76.9613 0.713152ZM72.995 0.219729L72.9509 0.717787C72.2945 0.659768 71.6349 0.613174 70.9721 0.578206L70.9984 0.0789004C71.6671 0.11418 72.3327 0.16119 72.995 0.219729ZM69.0034 0.00880812L68.9946 0.508731C68.6638 0.502918 68.3322 0.5 68 0.5C67.6678 0.5 67.3362 0.502919 67.0054 0.508731L66.9966 0.00880849C67.3304 0.00294432 67.6648 0 68 0C68.3352 0 68.6696 0.00294419 69.0034 0.00880812ZM65.0016 0.0789014L65.0279 0.578207C64.3651 0.613175 63.7054 0.65977 63.049 0.717789L63.005 0.219731C63.6673 0.161192 64.3329 0.114181 65.0016 0.0789014ZM61.0164 0.431211L61.0781 0.927387C60.4212 1.00912 59.7677 1.10233 59.1181 1.20681L59.0387 0.713156C59.6942 0.607727 60.3535 0.513676 61.0164 0.431211ZM57.0709 1.06591L57.168 1.5564C56.5179 1.68499 55.872 1.82494 55.2304 1.97602L55.1158 1.48933C55.7632 1.33688 56.415 1.19566 57.0709 1.06591ZM53.1787 1.98234L53.3107 2.4646C52.6728 2.63924 52.0394 2.82497 51.4109 3.02159L51.2616 2.54439C51.8958 2.34599 52.535 2.15857 53.1787 1.98234ZM49.3634 3.17588L49.5298 3.64739C48.9057 3.86756 48.2868 4.09857 47.6732 4.34019L47.49 3.87497C48.1092 3.63115 48.7337 3.39804 49.3634 3.17588ZM45.6437 4.64061L45.8435 5.09895C45.2374 5.36316 44.6369 5.63788 44.0423 5.92287L43.8262 5.47199C44.4262 5.18441 45.0321 4.90721 45.6437 4.64061ZM42.0384 6.36863L42.2705 6.81148C41.6849 7.11845 41.1054 7.43558 40.5323 7.76263L40.2845 7.32836C40.8627 6.99836 41.4474 6.67838 42.0384 6.36863ZM38.5663 8.34995L38.8295 8.77509C38.2675 9.12299 37.7121 9.48065 37.1637 9.84783L36.8855 9.43234C37.4389 9.06186 37.9992 8.70099 38.5663 8.34995ZM35.244 10.5742L35.5368 10.9795C35.0011 11.3665 34.4725 11.7628 33.9514 12.1682L33.6444 11.7735C34.1702 11.3645 34.7035 10.9646 35.244 10.5742ZM32.0886 13.0288L32.4094 13.4123C31.9026 13.8363 31.4035 14.2691 30.9124 14.7106L30.5781 14.3388C31.0737 13.8933 31.5773 13.4566 32.0886 13.0288ZM29.1151 15.7015L29.4623 16.0612C28.9871 16.5199 28.5199 16.9871 28.0612 17.4624L27.7014 17.1151C28.1643 16.6356 28.6356 16.1643 29.1151 15.7015ZM26.3387 18.5781L26.7106 18.9124C26.2691 19.4036 25.8363 19.9026 25.4123 20.4094L25.0288 20.0886C25.4566 19.5773 25.8933 19.0737 26.3387 18.5781ZM23.7735 21.6444L24.1681 21.9514C23.7628 22.4725 23.3665 23.0011 22.9795 23.5368L22.5742 23.244C22.9646 22.7035 23.3645 22.1702 23.7735 21.6444ZM21.4323 24.8855L21.8478 25.1637C21.4806 25.7121 21.123 26.2675 20.7751 26.8295L20.3499 26.5663C20.701 25.9993 21.0619 25.4389 21.4323 24.8855ZM19.3284 28.2845L19.7626 28.5323C19.4356 29.1054 19.1184 29.6849 18.8115 30.2705L18.3686 30.0384C18.6784 29.4475 18.9984 28.8627 19.3284 28.2845ZM17.472 31.8262L17.9229 32.0423C17.6379 32.6369 17.3632 33.2374 17.0989 33.8435L16.6406 33.6437C16.9072 33.0321 17.1844 32.4262 17.472 31.8262ZM15.875 35.49L16.3402 35.6732C16.0986 36.2868 15.8676 36.9058 15.6474 37.5298L15.1759 37.3635C15.398 36.7337 15.6311 36.1092 15.875 35.49ZM14.5444 39.2616L15.0216 39.4109C14.825 40.0394 14.6392 40.6728 14.4646 41.3107L13.9823 41.1787C14.1586 40.535 14.346 39.8959 14.5444 39.2616ZM13.4893 43.1158L13.976 43.2304C13.8249 43.872 13.685 44.518 13.5564 45.168L13.0659 45.0709C13.1957 44.415 13.3369 43.7632 13.4893 43.1158ZM12.7132 47.0387L13.2068 47.1181C13.1023 47.7677 13.0091 48.4212 12.9274 49.0782L12.4312 49.0164C12.5137 48.3535 12.6077 47.6942 12.7132 47.0387ZM12.2197 51.005L12.7178 51.0491C12.6598 51.7054 12.6132 52.3651 12.5782 53.0279L12.0789 53.0016C12.1142 52.3329 12.1612 51.6673 12.2197 51.005ZM12.0088 54.9966C12.0029 55.3304 12 55.6648 12 56C12 56.3352 12.0029 56.6696 12.0088 57.0034L12.5087 56.9946C12.5029 56.6638 12.5 56.3322 12.5 56C12.5 55.6678 12.5029 55.3362 12.5087 55.0054L12.0088 54.9966ZM12.0789 58.9984L12.5782 58.9721C12.6132 59.6349 12.6598 60.2946 12.7178 60.951L12.2197 60.995C12.1612 60.3327 12.1142 59.6671 12.0789 58.9984ZM12.4312 62.9836L12.9274 62.9219C13.0091 63.5788 13.1023 64.2323 13.2068 64.8819L12.7132 64.9613C12.6077 64.3058 12.5137 63.6465 12.4312 62.9836ZM13.0659 66.9291L13.5564 66.832C13.685 67.4821 13.8249 68.128 13.976 68.7696L13.4893 68.8842C13.3369 68.2368 13.1957 67.585 13.0659 66.9291ZM13.9823 70.8213L14.4646 70.6893C14.6392 71.3272 14.825 71.9606 15.0216 72.5891L14.5444 72.7384C14.346 72.1042 14.1586 71.465 13.9823 70.8213ZM15.1759 74.6366C15.398 75.2663 15.6311 75.8908 15.875 76.51L16.3402 76.3268C16.0986 75.7132 15.8676 75.0943 15.6474 74.4702L15.1759 74.6366ZM16.6406 78.3563L17.099 78.1565C17.3632 78.7626 17.6379 79.3631 17.9229 79.9577L17.472 80.1738C17.1844 79.5738 16.9072 78.9679 16.6406 78.3563ZM18.3686 81.9616L18.8115 81.7295C19.1185 82.3151 19.4356 82.8946 19.7626 83.4677L19.3284 83.7155C18.9984 83.1373 18.6784 82.5526 18.3686 81.9616ZM20.35 85.4337L20.7751 85.1705C21.123 85.7325 21.4806 86.2879 21.8478 86.8363L21.4323 87.1145C21.0619 86.5611 20.701 86.0008 20.35 85.4337ZM22.5742 88.756L22.9795 88.4632C23.3665 88.9989 23.7628 89.5275 24.1682 90.0486L23.7735 90.3556C23.3645 89.8298 22.9646 89.2965 22.5742 88.756ZM25.0288 91.9114L25.4123 91.5906C25.8363 92.0974 26.2691 92.5965 26.7106 93.0876L26.3388 93.4219C25.8933 92.9263 25.4566 92.4227 25.0288 91.9114ZM27.7015 94.8849L28.0612 94.5377C28.5199 95.0129 28.9871 95.4801 29.4624 95.9388L29.1151 96.2986C28.6356 95.8357 28.1643 95.3644 27.7015 94.8849ZM30.5781 97.6613L30.9124 97.2894C31.4036 97.7309 31.9026 98.1637 32.4094 98.5877L32.0886 98.9712C31.5773 98.5434 31.0737 98.1067 30.5781 97.6613ZM33.6444 100.227L33.9514 99.8319C34.4725 100.237 35.0011 100.634 35.5368 101.021L35.244 101.426C34.7035 101.035 34.1702 100.636 33.6444 100.227ZM36.8855 102.568L37.1637 102.152C37.7121 102.519 38.2675 102.877 38.8295 103.225L38.5663 103.65C37.9993 103.299 37.4389 102.938 36.8855 102.568ZM40.2845 104.672L40.5323 104.237C41.1054 104.564 41.6849 104.882 42.2705 105.189L42.0384 105.631C41.4475 105.322 40.8627 105.002 40.2845 104.672ZM43.8262 106.528L44.0423 106.077C44.6369 106.362 45.2374 106.637 45.8435 106.901L45.6437 107.359C45.0321 107.093 44.4262 106.816 43.8262 106.528ZM47.49 108.125L47.6732 107.66C48.2868 107.901 48.9058 108.132 49.5298 108.353L49.3634 108.824C48.7337 108.602 48.1092 108.369 47.49 108.125ZM51.2616 109.456L51.4109 108.978C52.0394 109.175 52.6728 109.361 53.3107 109.535L53.1787 110.018C52.535 109.841 51.8959 109.654 51.2616 109.456ZM55.1158 110.511L55.2304 110.024C55.872 110.175 56.518 110.315 57.168 110.444L57.0709 110.934C56.415 110.804 55.7632 110.663 55.1158 110.511ZM59.0387 111.287L59.1181 110.793C59.7677 110.898 60.4212 110.991 61.0782 111.073L61.0164 111.569C60.3535 111.486 59.6942 111.392 59.0387 111.287ZM63.005 111.78L63.0491 111.282C63.7054 111.34 64.3651 111.387 65.0279 111.422L65.0016 111.921C64.3329 111.886 63.6673 111.839 63.005 111.78ZM66.9966 111.991L67.0054 111.491C67.3362 111.497 67.6678 111.5 68 111.5C68.3322 111.5 68.6638 111.497 68.9946 111.491L69.0034 111.991C68.6696 111.997 68.3352 112 68 112C67.6648 112 67.3304 111.997 66.9966 111.991ZM70.9984 111.921L70.9721 111.422C71.6349 111.387 72.2946 111.34 72.951 111.282L72.995 111.78C72.3327 111.839 71.6671 111.886 70.9984 111.921ZM74.9836 111.569L74.9219 111.073C75.5789 110.991 76.2323 110.898 76.8819 110.793L76.9613 111.287C76.3058 111.392 75.6465 111.486 74.9836 111.569ZM78.9291 110.934L78.832 110.444C79.4821 110.315 80.128 110.175 80.7696 110.024L80.8842 110.511C80.2368 110.663 79.585 110.804 78.9291 110.934ZM82.8213 110.018L82.6893 109.535C83.3272 109.361 83.9606 109.175 84.5891 108.978L84.7384 109.456C84.1042 109.654 83.465 109.841 82.8213 110.018ZM86.6366 108.824L86.4702 108.353C87.0943 108.132 87.7132 107.901 88.3268 107.66L88.51 108.125C87.8908 108.369 87.2663 108.602 86.6366 108.824ZM90.3563 107.359L90.1565 106.901C90.7626 106.637 91.3631 106.362 91.9577 106.077L92.1738 106.528C91.5738 106.816 90.9679 107.093 90.3563 107.359ZM93.9616 105.631L93.7295 105.189C94.3151 104.882 94.8946 104.564 95.4677 104.237L95.7155 104.672C95.1373 105.002 94.5526 105.322 93.9616 105.631ZM97.4337 103.65C98.0008 103.299 98.5611 102.938 99.1145 102.568L98.8363 102.152C98.2879 102.519 97.7325 102.877 97.1705 103.225L97.4337 103.65ZM100.756 101.426L100.463 101.021C100.999 100.634 101.527 100.237 102.049 99.8318L102.356 100.226C101.83 100.636 101.297 101.035 100.756 101.426ZM103.911 98.9712L103.591 98.5877C104.097 98.1637 104.596 97.7309 105.088 97.2894L105.422 97.6612C104.926 98.1067 104.423 98.5434 103.911 98.9712ZM106.885 96.2985L106.538 95.9388C107.013 95.4801 107.48 95.0129 107.939 94.5376L108.299 94.8849C107.836 95.3644 107.364 95.8357 106.885 96.2985ZM109.661 93.4219L109.289 93.0876C109.731 92.5964 110.164 92.0974 110.588 91.5906L110.971 91.9114C110.543 92.4227 110.107 92.9263 109.661 93.4219ZM112.227 90.3556L111.832 90.0486C112.237 89.5275 112.634 88.9989 113.021 88.4632L113.426 88.756C113.035 89.2965 112.636 89.8298 112.227 90.3556ZM114.568 87.1145L114.152 86.8363C114.519 86.2879 114.877 85.7325 115.225 85.1705L115.65 85.4337C115.299 86.0007 114.938 86.5611 114.568 87.1145ZM116.672 83.7155C117.002 83.1373 117.322 82.5525 117.631 81.9616L117.189 81.7295C116.882 82.3151 116.564 82.8946 116.237 83.4677L116.672 83.7155ZM118.528 80.1738L118.077 79.9577C118.362 79.3631 118.637 78.7626 118.901 78.1565L119.359 78.3563C119.093 78.9679 118.816 79.5738 118.528 80.1738ZM120.125 76.51L119.66 76.3268C119.901 75.7132 120.132 75.0942 120.353 74.4702L120.824 74.6366C120.602 75.2663 120.369 75.8908 120.125 76.51ZM121.456 72.7384L120.978 72.5891C121.175 71.9606 121.361 71.3272 121.535 70.6893L122.018 70.8213C121.841 71.465 121.654 72.1041 121.456 72.7384ZM122.511 68.8842L122.024 68.7696C122.175 68.128 122.315 67.482 122.444 66.832L122.934 66.9291C122.804 67.585 122.663 68.2368 122.511 68.8842ZM123.287 64.9613L122.793 64.8819C122.898 64.2322 122.991 63.5788 123.073 62.9218L123.569 62.9836C123.486 63.6465 123.392 64.3058 123.287 64.9613ZM123.78 60.995L123.282 60.9509C123.34 60.2946 123.387 59.6349 123.422 58.9721L123.921 58.9984C123.886 59.6671 123.839 60.3327 123.78 60.995Z" fill="#394508"/>
<path d="M79.2415 63.0436H68.0216L70.844 65.866L67.708 69.002L57 58.3984H79.2415V63.0436Z" fill="white"/>
<path d="M79.4134 54.6035H57.1719V49.9584H68.3917L65.5693 47.136L68.7053 44L79.4134 54.6035Z" fill="white"/>
<path d="M119.31 15.155C119.31 21.8681 113.868 27.3101 107.155 27.3101C100.442 27.3101 95 21.8681 95 15.155C95 8.442 100.442 3 107.155 3C113.868 3 119.31 8.442 119.31 15.155Z" fill="white"/>
<path d="M24.3101 44.155C24.3101 50.8681 18.8681 56.3101 12.155 56.3101C5.442 56.3101 0 50.8681 0 44.155C0 37.442 5.442 32 12.155 32C18.8681 32 24.3101 37.442 24.3101 44.155Z" fill="white"/>
<path d="M124.31 92.155C124.31 98.8681 118.868 104.31 112.155 104.31C105.442 104.31 100 98.8681 100 92.155C100 85.442 105.442 80 112.155 80C118.868 80 124.31 85.442 124.31 92.155Z" fill="white"/>
<path d="M119.24 92.3976H118.608V90.5944C118.608 90.5114 118.54 90.4448 118.456 90.4448C118.452 90.4448 118.448 90.4465 118.444 90.4471C118.44 90.4465 118.437 90.4448 118.433 90.4448H117.848L116.833 88.6474H117.759C117.844 88.6474 117.911 88.5808 117.911 88.4978C117.911 88.4148 117.844 88.3481 117.759 88.3481H116.664L115.571 86.4128C115.551 86.3771 115.517 86.3508 115.477 86.3409C115.437 86.3304 115.393 86.3368 115.358 86.3584L112.097 88.3481H106.92C106.413 88.3481 106 88.7537 106 89.2523V89.8392C106 89.8719 106.002 89.9035 106.005 89.9356V95.2067C106.005 95.9297 106.603 96.5178 107.339 96.5178H118.456C118.54 96.5178 118.608 96.4511 118.608 96.3681V94.5637H119.24C119.443 94.5637 119.634 94.486 119.778 94.3445C119.921 94.2037 120 94.016 120 93.8167V93.1451C120 92.9458 119.921 92.7582 119.777 92.6167C119.634 92.4753 119.443 92.3976 119.24 92.3976ZM115.382 86.6959L117.501 90.4449H114.649C114.575 89.9732 114.16 89.6103 113.66 89.6103C113.16 89.6103 112.746 89.9732 112.672 90.4449H109.24L115.382 86.6959ZM114.339 90.4449H112.981C113.051 90.1392 113.328 89.9095 113.66 89.9095C113.992 89.9089 114.269 90.1386 114.339 90.4449ZM106.92 88.6475H111.607L108.663 90.4449H106.92C106.599 90.4449 106.337 90.2006 106.31 89.8914V89.7599C106.31 89.7505 106.306 89.7424 106.305 89.7336V89.2526C106.305 88.9188 106.581 88.6475 106.92 88.6475ZM118.304 96.2181H107.339C106.772 96.2181 106.31 95.7645 106.31 95.2063V90.5146C106.472 90.6566 106.686 90.7443 106.92 90.7443L118.304 90.7437V92.3979H116.831C116.746 92.3979 116.678 92.4645 116.678 92.5475V94.4145C116.678 94.4975 116.746 94.5641 116.831 94.5641H118.304L118.304 96.2181ZM119.696 93.8169C119.696 93.9367 119.648 94.049 119.562 94.1337C119.476 94.2185 119.362 94.2652 119.24 94.2652L116.983 94.2646V92.6969H119.24C119.359 92.6969 119.477 92.7449 119.562 92.8285C119.648 92.9132 119.696 93.0254 119.696 93.1453V93.8169Z" fill="#394508"/>
<path d="M9.00661 49.4488V46.0049H7.57886V49.4488C7.57886 49.521 7.52437 49.5792 7.45795 49.5792C7.39096 49.5792 7.33646 49.521 7.33646 49.4488V45.8746C7.33646 45.8023 7.39096 45.7442 7.45795 45.7442H9.12299C9.15535 45.7442 9.186 45.7577 9.20871 45.7821C9.23142 45.8066 9.24391 45.8397 9.24391 45.8746V49.4488C9.24391 49.521 9.18998 49.5792 9.12299 49.5792C9.056 49.5792 9.00207 49.521 9.00207 49.4488H9.00661ZM10.2493 44.337V49.4488C10.2493 49.521 10.3038 49.5792 10.3702 49.5792C10.4372 49.5792 10.4917 49.521 10.4917 49.4488V44.4661H11.9195L11.9189 49.4488C11.9189 49.521 11.9734 49.5792 12.0404 49.5792C12.1068 49.5792 12.1613 49.521 12.1613 49.4488V44.337C12.1613 44.3021 12.1488 44.2691 12.1261 44.2446C12.1034 44.2201 12.0722 44.2067 12.0404 44.2067H10.3748C10.3418 44.2048 10.31 44.2183 10.2862 44.2428C10.2629 44.2672 10.2493 44.3015 10.2493 44.337ZM13.2768 49.5811C13.3092 49.5811 13.3398 49.5676 13.3625 49.5431C13.3852 49.5186 13.3983 49.485 13.3983 49.4507V39.1567H14.826L14.8255 49.449C14.8255 49.5212 14.88 49.5793 14.947 49.5793C15.0134 49.5793 15.0679 49.5212 15.0679 49.449V39.0264C15.0679 38.9915 15.0554 38.9584 15.0327 38.934C15.01 38.9095 14.9788 38.8954 14.947 38.8954H13.2813C13.2149 38.8954 13.1604 38.9542 13.1604 39.0264V49.449C13.1604 49.4839 13.1735 49.5175 13.1962 49.542C13.2195 49.5665 13.2507 49.58 13.283 49.5793L13.2768 49.5811ZM17.8655 40.5423H16.2004C16.1334 40.5423 16.0789 40.6011 16.0789 40.6727V49.4488C16.0789 49.521 16.1334 49.5792 16.2004 49.5792C16.2668 49.5792 16.3213 49.521 16.3213 49.4488V40.7988H17.7457V49.4488C17.7457 49.521 17.8002 49.5792 17.8672 49.5792C17.9336 49.5792 17.9881 49.521 17.9881 49.4488V40.6727C17.9881 40.6378 17.975 40.6047 17.9523 40.5802C17.929 40.5551 17.8978 40.5417 17.8655 40.5423ZM17.8655 50.0756H7.4517C7.41764 50.0713 7.38301 50.0829 7.35746 50.108C7.33192 50.1325 7.31716 50.168 7.31716 50.2053C7.31716 50.2426 7.33192 50.2781 7.35746 50.3026C7.38301 50.3277 7.41764 50.3394 7.4517 50.3351H17.8655C17.8995 50.3394 17.9341 50.3277 17.9597 50.3026C17.9852 50.2781 18 50.2426 18 50.2053C18 50.168 17.9852 50.1325 17.9597 50.108C17.9341 50.0829 17.8995 50.0713 17.8655 50.0756ZM6 41.1513C5.99943 40.4046 6.27419 39.6885 6.76355 39.161C7.25234 38.6328 7.91654 38.3359 8.60851 38.3359C9.3011 38.3353 9.96473 38.6316 10.4546 39.1591C10.944 39.6867 11.2193 40.4028 11.2193 41.1489C11.2199 41.8956 10.9446 42.611 10.4552 43.1386C9.96585 43.6668 9.30165 43.963 8.60966 43.963C7.91767 43.963 7.25458 43.6662 6.76528 43.1392C6.27592 42.6122 6.00057 41.8969 6 41.1513ZM6.24241 41.1513C6.24241 41.8282 6.49164 42.4776 6.93556 42.9563C7.3795 43.4349 7.98182 43.7036 8.60976 43.7036C9.2377 43.7036 9.83995 43.4349 10.284 42.9563C10.7279 42.4777 10.9777 41.8283 10.9777 41.1513C10.9777 40.4744 10.7279 39.825 10.284 39.3463C9.84002 38.8671 9.2377 38.5984 8.60976 38.5984C7.98182 38.5984 7.37957 38.8671 6.93512 39.3457C6.49062 39.8243 6.24084 40.4737 6.24084 41.1512L6.24241 41.1513ZM7.69862 40.3973C7.69862 39.9713 8.04377 39.6169 8.48885 39.5631V39.2087C8.48885 39.1371 8.54278 39.0783 8.60977 39.0783C8.67675 39.0783 8.73068 39.1371 8.73068 39.2087V39.5631C9.05199 39.5912 9.33471 39.8042 9.46982 40.1194C9.48401 40.1519 9.48515 40.1898 9.47322 40.2235C9.4613 40.2565 9.43689 40.2834 9.40567 40.2969C9.37501 40.3104 9.34038 40.3098 9.30973 40.2945C9.27964 40.2798 9.25636 40.2516 9.24558 40.2174C9.14964 39.9982 8.95435 39.8495 8.73067 39.8256V40.9879C9.17575 41.0436 9.5209 41.3974 9.5209 41.8234C9.5209 42.2493 9.17575 42.6037 8.73067 42.6588V43.0119C8.73067 43.0836 8.67674 43.1423 8.60976 43.1423C8.54277 43.1423 8.48884 43.0836 8.48884 43.0119V42.6594C8.17206 42.6306 7.89275 42.4244 7.75424 42.1159C7.7321 42.0516 7.75991 41.98 7.81782 41.9525C7.87743 41.9304 7.94271 41.9598 7.9694 42.021C8.06818 42.2346 8.26119 42.3791 8.48089 42.4048V41.2358C8.04376 41.177 7.69862 40.8245 7.69862 40.3973ZM8.73126 41.2523V42.395C9.04178 42.3442 9.27908 42.108 9.27908 41.8221C9.27908 41.5363 9.04178 41.3013 8.73126 41.2523ZM7.94103 40.3973C7.94103 40.6831 8.17719 40.9194 8.48885 40.9702V39.8275C8.17662 39.8764 7.94103 40.1133 7.94103 40.3973Z" fill="#394508"/>
<path d="M107.873 9.28508C107.416 8.68124 106.72 8.33594 105.965 8.33594C105.261 8.33594 104.594 8.64551 104.136 9.18642C104.09 9.23915 104.097 9.3191 104.152 9.36503C104.204 9.40925 104.284 9.40415 104.33 9.34972C104.739 8.86664 105.336 8.58938 105.965 8.58938C106.64 8.58938 107.263 8.89896 107.671 9.43817C107.697 9.47049 107.734 9.4875 107.771 9.4875C107.799 9.4875 107.824 9.47899 107.848 9.46198C107.904 9.41946 107.914 9.33951 107.873 9.28508Z" fill="#394508"/>
<path d="M104.013 9.56868C103.952 9.53637 103.876 9.55848 103.843 9.61971C103.661 9.95821 103.566 10.3443 103.566 10.7339V12.2817C103.566 12.3515 103.622 12.4076 103.692 12.4076C103.762 12.4076 103.818 12.3515 103.818 12.2817V10.7339C103.818 10.3852 103.903 10.0399 104.066 9.73878C104.098 9.67755 104.075 9.601 104.013 9.56868Z" fill="#394508"/>
<path d="M108.237 12.4038C108.306 12.4038 108.362 12.3477 108.362 12.278V10.7335C108.362 10.3763 108.286 10.0344 108.136 9.71799C108.106 9.65506 108.031 9.62784 107.968 9.65846C107.905 9.68908 107.878 9.76392 107.908 9.82686C108.043 10.1092 108.111 10.4154 108.111 10.7352V12.2797C108.111 12.3477 108.167 12.4038 108.237 12.4038Z" fill="#394508"/>
<path d="M107.731 12.956C107.801 12.956 107.857 12.8998 107.857 12.8301V10.7311C107.857 10.362 107.751 10.0065 107.552 9.702C107.508 9.63226 107.46 9.56933 107.411 9.51149C107.049 9.08455 106.522 8.83791 105.965 8.83791C105.846 8.83791 105.729 8.84811 105.617 8.87022C105.549 8.88383 105.503 8.95017 105.516 9.01821C105.53 9.08625 105.596 9.13047 105.664 9.11857C105.761 9.09986 105.863 9.08965 105.967 9.08965C106.448 9.08965 106.906 9.30227 107.222 9.67479C107.267 9.72581 107.306 9.77855 107.343 9.83808C107.517 10.1017 107.608 10.4113 107.608 10.7311V12.8284C107.605 12.8998 107.661 12.956 107.731 12.956Z" fill="#394508"/>
<path d="M104.198 12.9574C104.268 12.9574 104.324 12.9013 104.324 12.8316V10.7309C104.324 10.1032 104.689 9.52318 105.254 9.25443C105.317 9.22381 105.344 9.14897 105.314 9.08603C105.283 9.0231 105.208 8.99588 105.145 9.0265C104.492 9.33778 104.072 10.0063 104.072 10.7309V12.8316C104.07 12.9013 104.128 12.9574 104.198 12.9574Z" fill="#394508"/>
<path d="M104.828 10.7339C104.828 10.1079 105.338 9.59762 105.964 9.59762C106.359 9.59762 106.717 9.79833 106.927 10.1368C106.964 10.1964 107.042 10.2151 107.1 10.1777C107.16 10.1402 107.178 10.0637 107.141 10.0042C106.886 9.59252 106.445 9.34588 105.964 9.34588C105.198 9.34588 104.576 9.96843 104.576 10.7339V11.2203C104.576 11.2901 104.632 11.3462 104.702 11.3462C104.772 11.3462 104.828 11.2901 104.828 11.2203V10.7339Z" fill="#394508"/>
<path d="M104.702 13.2918C104.772 13.2918 104.828 13.2356 104.828 13.1659V11.6316C104.828 11.5619 104.772 11.5057 104.702 11.5057C104.632 11.5057 104.576 11.5619 104.576 11.6316V13.1659C104.576 13.2356 104.632 13.2918 104.702 13.2918Z" fill="#394508"/>
<path d="M107.226 13.2905C107.296 13.2905 107.352 13.2344 107.352 13.1647V10.7323C107.352 10.6319 107.342 10.5384 107.323 10.4533C107.308 10.3853 107.241 10.3427 107.173 10.3563C107.105 10.3717 107.063 10.438 107.076 10.506C107.092 10.5741 107.098 10.6489 107.098 10.7306V13.1613C107.1 13.2344 107.156 13.2905 107.226 13.2905Z" fill="#394508"/>
<path d="M109.943 15.0492C109.72 14.9403 109.453 14.9352 109.227 15.0322V15.0067C109.227 14.9811 109.215 14.9556 109.201 14.9352C109.164 14.7838 109.087 14.6427 108.973 14.5287C108.728 14.2838 108.344 14.2106 108.027 14.345V14.214C108.027 14.0218 107.918 13.8432 107.726 13.7275C107.65 13.6799 107.563 13.6425 107.469 13.617C107.262 13.5642 107.027 13.5659 106.828 13.6272V12.8975C106.84 12.8788 106.849 12.8566 106.849 12.8345V10.9226C106.849 10.8171 106.83 10.7185 106.796 10.6266C106.757 10.5195 106.697 10.4191 106.626 10.3392C106.326 9.99557 105.767 9.94794 105.406 10.2388C105.352 10.283 105.343 10.3613 105.387 10.4157C105.432 10.4701 105.51 10.4786 105.564 10.4344C105.825 10.2252 106.219 10.2575 106.435 10.5059C106.486 10.5637 106.529 10.6351 106.558 10.7151C106.568 10.744 106.576 10.7729 106.582 10.8035L106.58 10.8018C106.578 10.8001 106.578 10.8001 106.575 10.7967C106.411 10.6334 106.194 10.545 105.964 10.545C105.939 10.545 105.911 10.5467 105.888 10.5518C105.677 10.5688 105.484 10.6606 105.345 10.8035C105.347 10.795 105.347 10.7865 105.348 10.7763C105.364 10.7083 105.321 10.6402 105.253 10.6249C105.185 10.6096 105.117 10.6521 105.102 10.7202C105.086 10.7882 105.078 10.8563 105.078 10.9226V12.8328C105.078 12.8566 105.086 12.8788 105.098 12.8975V15.7109L105.018 15.5544C104.835 15.1989 104.467 14.976 104.069 14.976C103.897 14.976 103.729 15.0186 103.578 15.0968C103.326 15.2278 103.139 15.4506 103.052 15.7228C102.964 15.9932 102.989 16.2824 103.12 16.5358L104.819 19.8153C104.836 19.8459 104.857 19.8783 104.872 19.8987C105.124 20.3477 105.493 20.727 105.935 20.9924C106.394 21.268 106.92 21.4108 107.458 21.4108C107.998 21.4108 108.526 21.2645 108.987 20.9873C109.431 20.7202 109.796 20.3409 110.055 19.8817C110.055 19.88 110.057 19.8766 110.057 19.8749C110.296 19.4377 110.422 18.9427 110.422 18.4443V15.8248C110.422 15.5952 110.334 15.3775 110.171 15.2159C110.108 15.1478 110.031 15.0951 109.943 15.0492ZM110.174 18.4426C110.174 18.9019 110.06 19.351 109.841 19.7507C109.841 19.7524 109.839 19.7524 109.839 19.7558C109.606 20.1742 109.269 20.5263 108.859 20.7713C108.021 21.2782 106.908 21.2782 106.068 20.7764C105.665 20.5348 105.326 20.1878 105.088 19.766C105.073 19.7456 105.061 19.7235 105.047 19.6997L103.348 16.4202C103.248 16.228 103.229 16.0068 103.295 15.7993C103.362 15.5901 103.504 15.42 103.697 15.3196C103.812 15.2618 103.942 15.2295 104.073 15.2295C104.379 15.2295 104.656 15.3979 104.797 15.6717L105.117 16.2875C105.142 16.3385 105.202 16.3657 105.258 16.3538C105.314 16.3385 105.353 16.2875 105.353 16.2297V11.4091C105.353 11.2152 105.444 11.04 105.586 10.9294C105.69 10.8461 105.821 10.7984 105.966 10.7984C105.973 10.7984 105.983 10.7984 105.991 10.8001C106.121 10.8018 106.243 10.8478 106.345 10.9311C106.362 10.943 106.381 10.9583 106.398 10.977C106.513 11.091 106.576 11.2441 106.576 11.4091V15.5221C106.576 15.5935 106.633 15.6479 106.702 15.6479C106.77 15.6479 106.828 15.5918 106.828 15.5221V13.8959C106.997 13.8245 107.214 13.8109 107.403 13.8602C107.475 13.8772 107.537 13.9061 107.592 13.9402C107.708 14.0116 107.774 14.1085 107.774 14.2123V16.1174C107.774 16.1888 107.832 16.2433 107.9 16.2433C107.971 16.2433 108.026 16.1871 108.026 16.1174V14.6307C108.262 14.476 108.594 14.5049 108.793 14.7073C108.903 14.8179 108.966 14.9641 108.971 15.1206V16.7127C108.971 16.7842 109.028 16.8386 109.097 16.8386C109.165 16.8386 109.223 16.7825 109.223 16.7127V15.3196C109.4 15.2006 109.631 15.1785 109.832 15.2771C109.893 15.3043 109.946 15.3452 109.994 15.3911C110.108 15.5068 110.171 15.6615 110.171 15.8231V18.4426H110.174Z" fill="#394508"/>
</svg>
